<svg width="8" height="8" viewBox="0 0 8 8" fill="none" xmlns="http://www.w3.org/2000/svg">
<mask id="mask0_2261_2988" style="mask-type:alpha" maskUnits="userSpaceOnUse" x="0" y="0" width="8" height="8">
<rect width="8" height="8" fill="#2DD5B9"/>
</mask>
<g mask="url(#mask0_2261_2988)">
<path d="M6.88081 7.29449C6.10698 7.29449 5.34884 7.13305 4.6064 6.81016C3.86395 6.48727 3.18995 6.02371 2.5844 5.41949C1.97884 4.81949 1.51462 4.14621 1.19173 3.39966C0.868842 2.6531 0.707397 1.89357 0.707397 1.12107C0.707397 0.992683 0.744259 0.891294 0.817981 0.816905C0.891703 0.742516 0.992759 0.705322 1.12115 0.705322H2.73806C2.8464 0.705322 2.94045 0.73735 3.02023 0.801405C3.10006 0.865516 3.15165 0.947628 3.17498 1.04774L3.41898 2.38466C3.43409 2.48371 3.43098 2.57143 3.40965 2.64782C3.38837 2.72421 3.35243 2.78571 3.30181 2.83232L2.41848 3.70441C2.5187 3.88135 2.63804 4.05546 2.77648 4.22674C2.91498 4.39796 3.07256 4.57193 3.24923 4.74866C3.41062 4.90443 3.57209 5.04779 3.73365 5.17874C3.89526 5.30963 4.05765 5.42388 4.22081 5.52149L5.13348 4.64607C5.19254 4.58702 5.25815 4.54718 5.33031 4.52657C5.40248 4.50591 5.47829 4.50377 5.55773 4.52016L6.93948 4.81891C7.04381 4.84913 7.12906 4.90038 7.19523 4.97266C7.26145 5.04493 7.29456 5.13113 7.29456 5.23124V6.87874C7.29456 7.00713 7.25737 7.10852 7.18298 7.18291C7.10859 7.2573 7.00787 7.29449 6.88081 7.29449Z" fill="#2DD5B9"/>
</g>
</svg>
