<svg width="24" height="24" viewBox="0 0 24 24" fill="none" xmlns="http://www.w3.org/2000/svg">
<mask id="mask0_2746_850" style="mask-type:alpha" maskUnits="userSpaceOnUse" x="0" y="0" width="24" height="24">
<rect width="24" height="24" fill="#FF0000"/>
</mask>
<g mask="url(#mask0_2746_850)">
<path d="M11.5 11V1.525C11.5 1.15833 11.6292 0.84583 11.8875 0.587497C12.1458 0.329164 12.4583 0.199997 12.825 0.199997C13.1917 0.199997 13.5042 0.329164 13.7625 0.587497C14.0208 0.84583 14.15 1.15833 14.15 1.525V11H11.5ZM7.35001 11V2.525C7.35001 2.15833 7.47918 1.84583 7.73751 1.5875C7.99585 1.32916 8.30835 1.2 8.67501 1.2C9.04168 1.2 9.35418 1.32916 9.61251 1.5875C9.87085 1.84583 10 2.15833 10 2.525V11H7.35001ZM12.5 23.8C9.91068 23.8 7.71335 22.8973 5.90801 21.092C4.10268 19.2867 3.20001 17.0893 3.20001 14.5V4.525C3.20001 4.15833 3.32918 3.84583 3.58751 3.5875C3.84585 3.32916 4.15835 3.2 4.52501 3.2C4.89168 3.2 5.20418 3.32916 5.46251 3.5875C5.72085 3.84583 5.85001 4.15833 5.85001 4.525V14.5C5.85001 16.35 6.49585 17.9208 7.78751 19.2125C9.07918 20.5042 10.65 21.15 12.5 21.15C14.35 21.15 15.9208 20.5042 17.2125 19.2125C18.5042 17.9208 19.15 16.35 19.15 14.5V11.325H19C18.8088 11.325 18.6485 11.3897 18.519 11.519C18.3897 11.6483 18.325 11.8087 18.325 12V15.65H15C14.5393 15.65 14.145 15.814 13.817 16.142C13.489 16.47 13.325 16.8643 13.325 17.325V18.325H10.675V17.325C10.675 16.125 11.0958 15.1042 11.9375 14.2625C12.7792 13.4208 13.8 13 15 13H15.675V3.525C15.675 3.15833 15.8042 2.84583 16.0625 2.5875C16.3208 2.32916 16.6333 2.2 17 2.2C17.3667 2.2 17.6792 2.32916 17.9375 2.5875C18.1958 2.84583 18.325 3.15833 18.325 3.525V8.8C18.475 8.76666 18.6292 8.7375 18.7875 8.7125C18.9458 8.6875 19.1083 8.675 19.275 8.675H21.8V14.5C21.8 17.0893 20.8973 19.2867 19.092 21.092C17.2867 22.8973 15.0893 23.8 12.5 23.8Z" fill="#FF0000"/>
</g>
</svg>
