<svg width="24" height="24" viewBox="0 0 24 24" fill="none" xmlns="http://www.w3.org/2000/svg">
<mask id="mask0_2261_3034" style="mask-type:alpha" maskUnits="userSpaceOnUse" x="0" y="0" width="24" height="24">
<rect width="24" height="24" fill="#D9D9D9"/>
</mask>
<g mask="url(#mask0_2261_3034)">
<path d="M10.5042 15.4788C10.5042 14.0618 10.6466 13.002 10.9312 12.2995C11.2159 11.597 11.7642 10.9497 12.576 10.3575C13.2982 9.82685 13.8032 9.36035 14.0912 8.95802C14.3792 8.55552 14.5232 7.99727 14.5232 7.28327C14.5232 6.67777 14.3197 6.17569 13.9127 5.77702C13.5057 5.37819 12.9428 5.17877 12.224 5.17877C11.5652 5.17877 10.9616 5.39344 10.4132 5.82277C9.8649 6.2521 9.47607 6.84144 9.24674 7.59077L6.00049 6.22002C6.46249 4.84285 7.23874 3.74652 8.32924 2.93102C9.41991 2.11535 10.7182 1.70752 12.224 1.70752C14.0765 1.70752 15.5053 2.26969 16.5105 3.39402C17.5158 4.51835 18.0185 5.81277 18.0185 7.27727C18.0185 8.3631 17.8498 9.25669 17.5125 9.95802C17.1752 10.6592 16.5835 11.3621 15.7375 12.0668C14.9915 12.6883 14.5153 13.2294 14.309 13.69C14.1027 14.1507 13.9995 14.7469 13.9995 15.4788H10.5042ZM12.224 22.7815C11.4667 22.7815 10.8217 22.5152 10.2892 21.9825C9.75657 21.45 9.49024 20.8051 9.49024 20.0478C9.49024 19.2906 9.75657 18.6447 10.2892 18.11C10.8217 17.5755 11.4667 17.3083 12.224 17.3083C12.9812 17.3083 13.6271 17.5755 14.1617 18.11C14.6962 18.6447 14.9635 19.2906 14.9635 20.0478C14.9635 20.8051 14.6962 21.45 14.1617 21.9825C13.6271 22.5152 12.9812 22.7815 12.224 22.7815Z" fill="#2DD5B9"/>
</g>
</svg>
