<svg width="118" height="31" viewBox="0 0 118 31" fill="none" xmlns="http://www.w3.org/2000/svg">
<path d="M0.528409 30V0.90909H6.67898V12.9119H19.1648V0.90909H25.3011V30H19.1648V17.983H6.67898V30H0.528409ZM28.7277 30V24.929H34.1681V24.7017C32.4919 23.6316 31.1662 22.2254 30.1908 20.483C29.2154 18.7405 28.7277 16.6525 28.7277 14.2188C28.7277 12.2112 29.0639 10.3693 29.7362 8.69318C30.4086 7.01705 31.3603 5.57292 32.5914 4.3608C33.8224 3.1392 35.276 2.19223 36.9522 1.51989C38.6378 0.847537 40.4844 0.511363 42.4919 0.511363C44.4995 0.511363 46.3414 0.847537 48.0175 1.51989C49.7031 2.19223 51.1614 3.1392 52.3925 4.3608C53.6236 5.57292 54.5753 7.01705 55.2476 8.69318C55.92 10.3693 56.2561 12.2112 56.2561 14.2188C56.2561 16.6525 55.7684 18.7405 54.7931 20.483C53.8177 22.2254 52.4919 23.6316 50.8158 24.7017V24.929H56.2561V30H44.722V23.6364C45.7448 23.2197 46.6586 22.5758 47.4635 21.7045C48.2684 20.8333 48.8982 19.8011 49.3527 18.608C49.8167 17.4053 50.0487 16.0985 50.0487 14.6875C50.0487 13.0303 49.7268 11.5483 49.0828 10.2415C48.4484 8.92519 47.563 7.88826 46.4266 7.13068C45.2902 6.37311 43.9787 5.99432 42.4919 5.99432C41.3934 5.99432 40.3802 6.21212 39.4522 6.64773C38.5241 7.07386 37.7239 7.67992 37.0516 8.46591C36.3792 9.25189 35.8584 10.1752 35.4891 11.2358C35.1198 12.2869 34.9351 13.4375 34.9351 14.6875C34.9351 16.0985 35.1624 17.4053 35.6169 18.608C36.0809 19.8011 36.7154 20.8333 37.5203 21.7045C38.3253 22.5758 39.2391 23.2197 40.2618 23.6364V30H28.7277ZM59.665 0.90909H67.2502L75.2616 20.4545H75.6025L83.6138 0.90909H91.1991V30H85.2332V11.0653H84.9917L77.4633 29.858H73.4008L65.8724 10.9943H65.6309V30H59.665V0.90909ZM111.128 9.27557C111.014 8.12973 110.526 7.23958 109.665 6.60511C108.803 5.97064 107.633 5.65341 106.156 5.65341C105.152 5.65341 104.305 5.79545 103.614 6.07955C102.922 6.35417 102.392 6.73769 102.023 7.23011C101.663 7.72254 101.483 8.28125 101.483 8.90625C101.464 9.42708 101.573 9.88163 101.81 10.2699C102.056 10.6581 102.392 10.9943 102.818 11.2784C103.244 11.553 103.737 11.7945 104.295 12.0028C104.854 12.2017 105.451 12.3722 106.085 12.5142L108.699 13.1392C109.968 13.4233 111.133 13.8021 112.193 14.2756C113.254 14.7491 114.172 15.3314 114.949 16.0227C115.725 16.714 116.327 17.5284 116.753 18.4659C117.188 19.4034 117.411 20.4782 117.42 21.6903C117.411 23.4706 116.956 25.0142 116.057 26.321C115.167 27.6184 113.879 28.6269 112.193 29.3466C110.517 30.0568 108.495 30.4119 106.128 30.4119C103.779 30.4119 101.734 30.0521 99.9914 29.3324C98.2585 28.6127 96.9043 27.5473 95.9289 26.1364C94.963 24.7159 94.4564 22.9593 94.409 20.8665H100.361C100.427 21.8419 100.706 22.6562 101.199 23.3097C101.701 23.9536 102.368 24.4413 103.202 24.7727C104.044 25.0947 104.996 25.2557 106.057 25.2557C107.098 25.2557 108.003 25.1042 108.77 24.8011C109.546 24.4981 110.148 24.0767 110.574 23.5369C111 22.9972 111.213 22.3769 111.213 21.6761C111.213 21.0227 111.019 20.4735 110.631 20.0284C110.252 19.5833 109.693 19.2045 108.954 18.892C108.225 18.5795 107.33 18.2955 106.27 18.0398L103.102 17.2443C100.65 16.6477 98.713 15.715 97.2926 14.446C95.8721 13.1771 95.1666 11.4678 95.1761 9.31818C95.1666 7.55682 95.6354 6.01799 96.5823 4.7017C97.5388 3.38542 98.8503 2.35795 100.517 1.61932C102.184 0.880681 104.078 0.511363 106.199 0.511363C108.358 0.511363 110.242 0.880681 111.852 1.61932C113.472 2.35795 114.731 3.38542 115.631 4.7017C116.53 6.01799 116.994 7.54261 117.023 9.27557H111.128Z" fill="#2DD5B9"/>
</svg>
