<svg width="24" height="24" viewBox="0 0 24 24" fill="none" xmlns="http://www.w3.org/2000/svg">
<mask id="mask0_2747_10040" style="mask-type:alpha" maskUnits="userSpaceOnUse" x="0" y="0" width="24" height="24">
<rect width="24" height="24" fill="#D9D9D9"/>
</mask>
<g mask="url(#mask0_2747_10040)">
<path d="M7.53751 16.7325C7.72918 16.7325 7.89793 16.6627 8.04376 16.523C8.1896 16.3833 8.26251 16.2157 8.26251 16.02C8.26251 15.8283 8.1896 15.6596 8.04376 15.5138C7.89793 15.3679 7.72918 15.295 7.53751 15.295C7.34585 15.295 7.17918 15.3679 7.03751 15.5138C6.89585 15.6596 6.82501 15.8283 6.82501 16.02C6.82501 16.2157 6.89585 16.3833 7.03751 16.523C7.17918 16.6627 7.34585 16.7325 7.53751 16.7325ZM7.53751 12.7125C7.72918 12.7125 7.89793 12.6417 8.04376 12.5C8.1896 12.3583 8.26251 12.1917 8.26251 12C8.26251 11.8083 8.1896 11.6396 8.04376 11.4938C7.89793 11.3479 7.72918 11.275 7.53751 11.275C7.34585 11.275 7.17918 11.3479 7.03751 11.4938C6.89585 11.6396 6.82501 11.8083 6.82501 12C6.82501 12.1917 6.89585 12.3583 7.03751 12.5C7.17918 12.6417 7.34585 12.7125 7.53751 12.7125ZM7.53751 8.674C7.72918 8.674 7.89793 8.60417 8.04376 8.4645C8.1896 8.32483 8.26251 8.15717 8.26251 7.9615C8.26251 7.76983 8.1896 7.60108 8.04376 7.45525C7.89793 7.30942 7.72918 7.2365 7.53751 7.2365C7.34585 7.2365 7.17918 7.30942 7.03751 7.45525C6.89585 7.60108 6.82501 7.76983 6.82501 7.9615C6.82501 8.15717 6.89585 8.32483 7.03751 8.4645C7.17918 8.60417 7.34585 8.674 7.53751 8.674ZM10.8125 16.745H16.8375V15.3075H10.8125V16.745ZM10.8125 12.7125H16.8375V11.275H10.8125V12.7125ZM10.8125 8.6865H16.8375V7.249H10.8125V8.6865ZM4.60376 21.037C4.16093 21.037 3.77676 20.8743 3.45126 20.5488C3.12576 20.2233 2.96301 19.8391 2.96301 19.3963V4.60375C2.96301 4.15942 3.12576 3.77383 3.45126 3.447C3.77676 3.12033 4.16093 2.957 4.60376 2.957H19.3963C19.8406 2.957 20.2262 3.12033 20.553 3.447C20.8797 3.77383 21.043 4.15942 21.043 4.60375V19.3963C21.043 19.8391 20.8797 20.2233 20.553 20.5488C20.2262 20.8743 19.8406 21.037 19.3963 21.037H4.60376ZM4.60376 19.3963H19.3963V4.60375H4.60376V19.3963Z" fill="#2DD5B9"/>
</g>
</svg>
