<svg width="62" height="70" viewBox="0 0 62 70" fill="none" xmlns="http://www.w3.org/2000/svg">
<path d="M2.33923 2.33927H52.6964" stroke="#2DD5B9" stroke-width="3" stroke-linecap="round"/>
<path d="M2.33923 2.33927L23.2321 30.1964" stroke="#2DD5B9" stroke-width="3" stroke-linecap="round"/>
<path d="M13.0536 8.23214H41.4464" stroke="#2DD5B9" stroke-width="3" stroke-linecap="round"/>
<path d="M23.2245 41.9833L52.6976 2.34699" stroke="#2DD5B9" stroke-width="3" stroke-linecap="round"/>
<path d="M24.8459 30.1955L41.4455 8.2255" stroke="#2DD5B9" stroke-width="3" stroke-linecap="round"/>
<path d="M24.469 23.2522C24.2551 23.5464 23.8163 23.5464 23.6024 23.2522L16.7672 13.8507C16.5098 13.4966 16.7627 13 17.2005 13H30.8709C31.3087 13 31.5616 13.4966 31.3042 13.8507L24.469 23.2522Z" fill="#047BF0"/>
<path d="M26.5 30C26.5 30.7531 25.0355 32.5 24 32.5C22.9645 32.5 21.5 30.7531 21.5 30C21.5 29.2469 22.9645 29 24 29C25.0355 29 26.5 29.2469 26.5 30Z" fill="#2DD5B9"/>
<path d="M59.6607 67.6964H9.30359" stroke="#2DD5B9" stroke-width="3" stroke-linecap="round"/>
<path d="M59.6607 67.6964L38.7678 39.8393" stroke="#2DD5B9" stroke-width="3" stroke-linecap="round"/>
<path d="M48.9464 61.8036H20.5536" stroke="#2DD5B9" stroke-width="3" stroke-linecap="round"/>
<path d="M38.7756 28.0524L9.30249 67.6889" stroke="#2DD5B9" stroke-width="3" stroke-linecap="round"/>
<path d="M37.1541 39.8403L20.5546 61.81" stroke="#2DD5B9" stroke-width="3" stroke-linecap="round"/>
<path d="M37.531 47.4085C37.7449 47.1143 38.1837 47.1143 38.3976 47.4085L45.2328 56.81C45.4902 57.1641 45.2373 57.6607 44.7995 57.6607H31.1291C30.6913 57.6607 30.4384 57.1641 30.6958 56.81L37.531 47.4085Z" fill="#8DCEE3"/>
<path d="M35.5 40.5C33.5 41.5 36.9645 37.5 38 37.5C39.0355 37.5 42 41 40.5 40.5C40.5 41.2531 39.0355 41.5 38 41.5C36.9645 41.5 35.5 41.2531 35.5 40.5Z" fill="#2DD5B9"/>
</svg>
