<svg width="8" height="8" viewBox="0 0 8 8" fill="none" xmlns="http://www.w3.org/2000/svg">
<mask id="mask0_2261_3027" style="mask-type:alpha" maskUnits="userSpaceOnUse" x="0" y="0" width="8" height="8">
<rect width="8" height="8" fill="#D9D9D9"/>
</mask>
<g mask="url(#mask0_2261_3027)">
<path d="M1.31524 6.94868C1.05501 6.94868 0.832765 6.85621 0.648487 6.67126C0.464209 6.48632 0.37207 6.2644 0.37207 6.00551V1.99468C0.37207 1.73579 0.464209 1.51388 0.648487 1.32893C0.832765 1.14399 1.05501 1.05151 1.31524 1.05151H6.68474C6.94496 1.05151 7.16721 1.14399 7.35149 1.32893C7.53576 1.51388 7.6279 1.73579 7.6279 1.99468V6.00551C7.6279 6.2644 7.53576 6.48632 7.35149 6.67126C7.16721 6.85621 6.94496 6.94868 6.68474 6.94868H1.31524ZM3.99999 4.58285L6.68474 2.9226V1.99468L3.99999 3.69068L1.31524 1.99468V2.9226L3.99999 4.58285Z" fill="#2DD5B9"/>
</g>
</svg>
