<svg width="25" height="25" viewBox="0 0 25 25" fill="none" xmlns="http://www.w3.org/2000/svg">
<mask id="mask0_2497_5091" style="mask-type:alpha" maskUnits="userSpaceOnUse" x="0" y="0" width="25" height="25">
<rect x="0.564453" y="0.417908" width="24" height="24" fill="#2DD5B9"/>
</mask>
<g mask="url(#mask0_2497_5091)">
<path d="M21.5645 7.41791V19.4179C21.5645 19.9679 21.3686 20.4387 20.977 20.8304C20.5853 21.2221 20.1145 21.4179 19.5645 21.4179H5.56445C5.01445 21.4179 4.54362 21.2221 4.15195 20.8304C3.76029 20.4387 3.56445 19.9679 3.56445 19.4179V5.41791C3.56445 4.86791 3.76029 4.39707 4.15195 4.00541C4.54362 3.61374 5.01445 3.41791 5.56445 3.41791H17.5645L21.5645 7.41791ZM19.5645 8.26791L16.7145 5.41791H5.56445V19.4179H19.5645V8.26791ZM12.5645 18.4179C13.3978 18.4179 14.1061 18.1262 14.6895 17.5429C15.2728 16.9596 15.5645 16.2512 15.5645 15.4179C15.5645 14.5846 15.2728 13.8762 14.6895 13.2929C14.1061 12.7096 13.3978 12.4179 12.5645 12.4179C11.7311 12.4179 11.0228 12.7096 10.4395 13.2929C9.85612 13.8762 9.56445 14.5846 9.56445 15.4179C9.56445 16.2512 9.85612 16.9596 10.4395 17.5429C11.0228 18.1262 11.7311 18.4179 12.5645 18.4179ZM6.56445 10.4179H15.5645V6.41791H6.56445V10.4179Z" fill="#2DD5B9"/>
</g>
</svg>
