<svg width="24" height="24" viewBox="0 0 24 24" fill="none" xmlns="http://www.w3.org/2000/svg">
<mask id="mask0_2111_379" style="mask-type:alpha" maskUnits="userSpaceOnUse" x="0" y="0" width="24" height="24">
<rect width="24" height="24" fill="#D9D9D9"/>
</mask>
<g mask="url(#mask0_2111_379)">
<path d="M9.64356 22.0245L9.13756 18.8643C8.83639 18.7678 8.51356 18.6204 8.16906 18.422C7.82456 18.2237 7.52789 18.0241 7.27906 17.8233L4.34031 19.1723L1.94031 14.9273L4.65106 12.9533C4.62172 12.8156 4.60289 12.661 4.59456 12.4895C4.58622 12.3179 4.58206 12.1547 4.58206 12C4.58206 11.8704 4.58622 11.7135 4.59456 11.5295C4.60289 11.3457 4.62172 11.1764 4.65106 11.0218L1.94031 9.04178L4.34031 4.82128L7.31906 6.17678C7.54523 5.98828 7.82539 5.79795 8.15956 5.60578C8.49372 5.41361 8.81973 5.26728 9.13756 5.16678L9.64356 1.95703H14.3691L14.8751 5.12928C15.1679 5.23811 15.4856 5.38653 15.8281 5.57453C16.1706 5.76253 16.4589 5.96328 16.6931 6.17678L19.6783 4.82128L22.0723 9.04178L19.3181 10.9978C19.3391 11.1518 19.3568 11.3165 19.3713 11.492C19.3858 11.6677 19.3931 11.837 19.3931 12C19.3931 12.163 19.3858 12.3296 19.3713 12.4998C19.3568 12.6699 19.3391 12.8301 19.3181 12.9803L22.0598 14.9273L19.6598 19.1723L16.6871 17.8108C16.4574 18.0093 16.1836 18.2052 15.8658 18.3985C15.5481 18.5919 15.2179 18.7471 14.8751 18.8643L14.3691 22.0245H9.64356ZM10.9566 20.3838H13.0321L13.4023 17.5773C13.9493 17.4428 14.4633 17.239 14.9443 16.966C15.4253 16.6932 15.8651 16.3493 16.2636 15.9343L18.9261 17.0968L19.8598 15.393L17.5093 13.674C17.5676 13.3867 17.6207 13.1059 17.6686 12.8318C17.7164 12.5576 17.7403 12.2794 17.7403 11.997C17.7403 11.7117 17.7226 11.4337 17.6873 11.163C17.652 10.8924 17.5926 10.6134 17.5093 10.326L19.8658 8.60053L18.9386 6.89078L16.2696 8.05328C15.8946 7.62861 15.4635 7.26745 14.9763 6.96978C14.4893 6.67211 13.9646 6.48361 13.4023 6.40428L13.0523 3.60378H10.9478L10.6163 6.40528C10.025 6.52561 9.49206 6.72211 9.01756 6.99478C8.54289 7.26745 8.10356 7.62028 7.69956 8.05328L5.07406 6.89078L4.12181 8.60053L6.45381 10.295C6.38714 10.5907 6.33197 10.8775 6.28831 11.1555C6.24464 11.4335 6.22281 11.7106 6.22281 11.9868C6.22281 12.2746 6.24256 12.5579 6.28206 12.8368C6.32156 13.1156 6.37464 13.4009 6.44131 13.6925L4.12181 15.387L5.07056 17.0968L7.69956 15.9468C8.11189 16.3631 8.56164 16.7087 9.04881 16.9835C9.53581 17.2584 10.0583 17.4624 10.6163 17.5958L10.9566 20.3838ZM11.9688 15.1875C12.849 15.1875 13.5993 14.8769 14.2198 14.2555C14.8403 13.6344 15.1506 12.8823 15.1506 11.9993C15.1506 11.1164 14.84 10.3646 14.2188 9.74378C13.5978 9.12295 12.8459 8.81253 11.9631 8.81253C11.0714 8.81253 10.3172 9.1232 9.70056 9.74453C9.08389 10.3657 8.77556 11.1178 8.77556 12.0008C8.77556 12.8836 9.08389 13.6354 9.70056 14.2563C10.3172 14.8771 11.0733 15.1875 11.9688 15.1875Z" fill="#2DD5B9"/>
</g>
</svg>
