<svg width="48" height="48" viewBox="0 0 48 48" fill="none" xmlns="http://www.w3.org/2000/svg">
<path d="M24 46.9999C36.7025 46.9999 46.9999 36.7025 46.9999 24C46.9999 11.2975 36.7025 1.00006 24 1.00006C11.2974 1.00006 1 11.2975 1 24C1 36.7025 11.2974 46.9999 24 46.9999Z" fill="url(#paint0_linear_2066_143)"/>
<path d="M27.1894 26.7959C27.045 26.7487 26.1325 26.3374 26.7027 24.604H26.6945C28.181 23.073 29.3169 20.6096 29.3169 18.1842C29.3169 14.455 26.8371 12.5 23.955 12.5C21.0711 12.5 18.6049 14.4541 18.6049 18.1842C18.6049 20.6196 19.7345 23.093 21.23 24.6203C21.813 26.1494 20.7706 26.7169 20.5527 26.7959C18.5207 27.453 12.993 30.7291 13.0805 35.5H34.919C35.0165 30.9424 30.6442 27.9828 27.1894 26.7959Z" fill="white" fill-opacity="0.846939"/>
<defs>
<linearGradient id="paint0_linear_2066_143" x1="23.0512" y1="45.917" x2="23.0512" y2="1.55991" gradientUnits="userSpaceOnUse">
<stop stop-color="#047BF0"/>
<stop offset="1" stop-color="#2DD5B9"/>
</linearGradient>
</defs>
</svg>
