<svg width="25" height="25" viewBox="0 0 25 25" fill="none" xmlns="http://www.w3.org/2000/svg">
<mask id="mask0_2510_6499" style="mask-type:alpha" maskUnits="userSpaceOnUse" x="0" y="0" width="25" height="25">
<rect x="0.969238" y="0.393341" width="24" height="24" fill="#D9D9D9"/>
</mask>
<g mask="url(#mask0_2510_6499)">
<path d="M12.9692 16.3933C14.2192 16.3933 15.2817 15.9558 16.1567 15.0808C17.0317 14.2058 17.4692 13.1433 17.4692 11.8933C17.4692 10.6433 17.0317 9.58084 16.1567 8.70584C15.2817 7.83084 14.2192 7.39334 12.9692 7.39334C11.7192 7.39334 10.6567 7.83084 9.78174 8.70584C8.90674 9.58084 8.46924 10.6433 8.46924 11.8933C8.46924 13.1433 8.90674 14.2058 9.78174 15.0808C10.6567 15.9558 11.7192 16.3933 12.9692 16.3933ZM12.9692 14.5933C12.2192 14.5933 11.5817 14.3308 11.0567 13.8058C10.5317 13.2808 10.2692 12.6433 10.2692 11.8933C10.2692 11.1433 10.5317 10.5058 11.0567 9.98084C11.5817 9.45584 12.2192 9.19334 12.9692 9.19334C13.7192 9.19334 14.3567 9.45584 14.8817 9.98084C15.4067 10.5058 15.6692 11.1433 15.6692 11.8933C15.6692 12.6433 15.4067 13.2808 14.8817 13.8058C14.3567 14.3308 13.7192 14.5933 12.9692 14.5933ZM12.9692 19.3933C10.5359 19.3933 8.31924 18.7142 6.31924 17.3558C4.31924 15.9975 2.86924 14.1767 1.96924 11.8933C2.86924 9.61001 4.31924 7.78917 6.31924 6.43084C8.31924 5.07251 10.5359 4.39334 12.9692 4.39334C15.4026 4.39334 17.6192 5.07251 19.6192 6.43084C21.6192 7.78917 23.0692 9.61001 23.9692 11.8933C23.0692 14.1767 21.6192 15.9975 19.6192 17.3558C17.6192 18.7142 15.4026 19.3933 12.9692 19.3933ZM12.9692 17.3933C14.8526 17.3933 16.5817 16.8975 18.1567 15.9058C19.7317 14.9142 20.9359 13.5767 21.7692 11.8933C20.9359 10.21 19.7317 8.87251 18.1567 7.88084C16.5817 6.88917 14.8526 6.39334 12.9692 6.39334C11.0859 6.39334 9.35674 6.88917 7.78174 7.88084C6.20674 8.87251 5.00257 10.21 4.16924 11.8933C5.00257 13.5767 6.20674 14.9142 7.78174 15.9058C9.35674 16.8975 11.0859 17.3933 12.9692 17.3933Z" fill="#2DD5B9"/>
</g>
</svg>
